<?xml version="1.0" encoding="UTF-8" standalone="no"?>
<svg width="271px" height="204px" viewBox="0 0 271 204" version="1.1" xmlns="http://www.w3.org/2000/svg" xmlns:xlink="http://www.w3.org/1999/xlink" xmlns:sketch="http://www.bohemiancoding.com/sketch/ns">
    <title>sass</title>
    <description>Created with Sketch (http://www.bohemiancoding.com/sketch)</description>
    <defs></defs>
    <g id="Page-1" stroke="none" stroke-width="1" fill="none" fill-rule="evenodd" sketch:type="MSPage">
        <g id="Content" sketch:type="MSArtboardGroup" transform="translate(-508.000000, -132.000000)" fill="#E0CD80" opacity="0.1296875">
            <path d="M548.336217,314 C546.818419,314 545.503327,313.719162 544.498108,313.150859 C539.80681,310.500712 541.665219,299.152049 550.562652,290.972959 C555.98668,285.987467 562.987489,281.39548 567.631434,278.56722 C568.688991,277.947554 570.24168,277.037938 572.128335,275.936126 C572.441531,275.762156 572.617652,275.666058 572.617652,275.666058 L572.611837,275.65446 C572.975709,275.441553 573.34872,275.223676 573.734193,275 C576.971662,286.643584 573.832222,296.89292 566.221635,304.983368 C560.649732,310.906642 553.376434,314 548.336217,314 M661.472206,290 C661.317138,290 661.184803,289.970922 661.080883,289.906779 C660.757757,289.706654 661.507117,288.97115 661.507117,288.97115 C661.507117,288.97115 666.774553,283.116198 668.849702,280.44957 C670.056958,278.89817 671.455816,277.0577 672.981327,275 C672.993505,275.205257 673,275.408803 673,275.611494 C672.984574,282.627003 666.426259,287.363305 663.501078,289.267062 C662.712749,289.693825 661.973944,290 661.472206,290 M695.404611,282 C694.65345,281.423942 694.778366,279.562517 697.2517,273.766995 C698.222713,271.491198 700.437887,267.6611 704.290292,264 C704.735825,265.505552 705.008142,266.949355 704.999814,268.29322 C704.950681,277.259908 699.002188,280.60901 695.404611,282 M608.024745,289 C607.940553,289 607.857964,288.989259 607.776177,288.967776 C605.07481,288.244795 603.431057,276.301972 607.236545,264.548364 C609.152119,258.632312 613.243059,251.56197 615.646947,248.818773 C618.433309,245.639308 621.422534,244.000826 623.264339,244 C623.980374,244 624.522411,244.247879 624.812674,244.749422 C626.131685,247.029911 620.10673,264.108791 618.558395,267.958356 C616.152903,273.938856 611.187165,289 608.024745,289 M632.299275,140 C621.717561,140 610.194425,141.932772 598.87756,145.966526 C578.318093,153.294404 556.060602,164.795386 540.057255,179.812298 C521.029146,197.668175 517.994484,213.208684 519.245313,219.702105 C523.688395,242.774982 555.387333,257.799316 568.08044,268.935018 C567.4542,269.282158 566.86674,269.60786 566.332085,269.903053 C559.96738,273.061947 535.804767,285.747825 529.760195,299.151895 C522.904565,314.355982 530.851783,325.265754 536.113349,326.734298 C539.196692,327.59514 542.295711,328 545.3543,328 C558.46655,328 570.843649,320.555035 578.1341,309.646912 C587.12175,296.197491 586.024387,278.683807 581.898962,270.690509 C581.848632,270.591561 581.790876,270.494263 581.738896,270.39614 C583.38164,269.41986 585.057387,268.427912 586.718283,267.449158 C589.957567,265.541123 593.136619,263.761719 595.896528,262.255246 C594.352794,266.499263 593.221603,271.585158 592.633317,278.932 C591.942721,287.562684 595.468309,298.719 600.082184,303.108965 C602.113543,305.040912 604.557444,305.086263 606.106129,305.086263 C611.474956,305.086263 613.925459,300.604772 616.621836,295.30614 C619.930427,288.806123 622.865254,281.239947 622.865254,281.239947 C622.865254,281.239947 619.18125,301.679175 629.219233,301.679175 C632.876009,301.679175 636.555063,296.921456 638.193682,294.495596 L638.200282,294.536 C638.200282,294.536 638.295992,294.378509 638.481636,294.061877 C638.862,293.479737 639.076523,293.108684 639.076523,293.108684 L639.096325,293.00314 C640.565801,290.442053 643.826536,284.604158 648.71599,274.976579 C655.033665,262.537246 661.093089,246.954684 661.093089,246.954684 C661.093089,246.954684 661.656622,250.764982 663.503162,257.064632 C664.588974,260.771035 666.896736,264.868281 668.716874,268.79814 C667.251523,270.838105 666.35053,272.009807 666.35053,272.009807 L666.375283,272.070825 C665.203662,273.63007 663.890952,275.313 662.517185,276.954702 C657.531197,282.911333 651.592236,289.715614 650.796854,291.678895 C649.860383,293.993439 650.081505,295.694509 651.892567,297.064105 C652.924748,297.845789 654.586469,298.110474 656.433834,298.110474 C656.953638,298.110474 657.487468,298.08986 658.026248,298.053579 C662.507284,297.750965 665.659934,296.636158 667.215219,295.956719 C669.639318,295.096702 672.463584,293.743596 675.113757,291.789386 C680.005686,288.18193 682.955364,283.021 682.671535,276.184561 C682.514769,272.417965 681.317571,268.684351 679.802715,265.158526 C680.24661,264.518667 680.692156,263.872211 681.137702,263.218333 C688.848121,251.909474 694.829161,239.481684 694.829161,239.481684 C694.829161,239.481684 695.393519,243.291982 697.24006,249.591632 C698.174056,252.781035 700.018121,256.25986 701.674891,259.67107 C694.42487,265.581526 689.928157,272.448474 688.367096,276.954702 C685.480124,285.28607 687.741682,289.061737 691.981793,289.92093 C692.303576,289.98607 692.646812,290.016579 693.005724,290.016579 C694.792033,290.016579 696.957881,289.282719 698.65673,288.561228 C701.196342,287.716053 704.247506,286.309351 707.098174,284.207544 C711.989278,280.600088 716.692262,275.548825 716.408433,268.712386 C716.279719,265.600491 715.438133,262.511684 714.296215,259.543263 C718.943919,257.601421 724.629579,256.311807 731.507487,256.311807 C733.723665,256.311807 736.064431,256.446211 738.534735,256.734807 C760.277373,259.282702 764.543062,272.902807 763.727878,278.603 C762.911869,284.303193 758.351625,287.437351 756.826868,288.383123 C755.302111,289.329719 754.836763,289.657895 754.964651,290.361246 C755.088414,291.042333 755.440725,291.252596 756.046338,291.252596 C756.350794,291.252596 756.719607,291.199 757.155252,291.124789 C758.944861,290.822175 768.572777,286.488281 768.984494,275.966053 C769.505948,262.662579 756.852446,248.053 734.429938,248.053 C734.335878,248.053 734.246769,248.053 734.153534,248.053825 C725.41506,248.1 717.847381,250.204281 711.504128,253.341737 C709.183164,248.695333 706.834972,244.608807 706.440582,241.570298 C705.980184,238.022211 705.447179,235.905561 706.002461,231.679684 C706.558569,227.453807 708.99587,221.46914 708.959566,221.021404 C708.924087,220.572842 708.41336,218.419912 703.373741,218.382807 L703.111364,218.382807 C698.183957,218.382807 694.013977,219.379702 693.516451,220.690754 C693.008199,222.025719 692.037899,225.030421 691.433937,228.163754 C690.551921,232.748316 681.372026,249.097719 676.159965,257.652544 C674.455339,254.314719 673.005665,251.370211 672.703684,249.043298 C672.243287,245.495211 671.709457,243.379386 672.265564,239.15186 C672.822496,234.926807 675.258972,228.941316 675.223493,228.492754 C675.188015,228.045018 674.677287,225.892088 669.636843,225.855807 C669.549384,225.854982 669.4611,225.854982 669.373641,225.854982 C664.447059,225.854982 660.277905,226.851877 659.778729,228.163754 C659.271301,229.498719 658.730046,232.618035 657.697864,235.63593 C656.665683,238.654649 644.462677,265.929491 641.267123,272.999281 C639.63923,276.600965 638.221735,279.494351 637.220907,281.470825 L637.214306,281.46093 C637.214306,281.46093 637.15325,281.591211 637.046814,281.813018 C636.190375,283.495947 635.681298,284.426877 635.681298,284.426877 L635.69615,284.461509 C635.01628,285.696702 634.288555,286.844491 633.928818,286.844491 C633.676342,286.844491 633.172215,283.55614 634.038554,279.041667 C635.853741,269.579825 640.215965,254.825123 640.172235,254.317193 C640.149958,254.056632 640.983294,251.485649 637.324042,250.141614 C636.503908,249.840649 635.805061,249.724386 635.21265,249.724386 C633.233271,249.724386 632.426338,251.014825 632.176337,251.020596 C631.86198,251.027193 631.628481,251.789912 631.628481,251.789912 C631.628481,251.789912 635.590539,235.196439 624.070703,235.196439 C616.867712,235.196439 606.887484,243.101509 601.970803,250.266123 C598.869309,251.96307 592.22985,255.599386 585.1861,259.482246 C582.479822,260.973053 579.719913,262.496842 577.101918,263.943947 C576.9237,263.746877 576.745482,263.548158 576.563138,263.352737 C562.59445,248.400965 536.770942,237.82514 537.86583,217.723982 C538.265171,210.415895 540.796531,191.174754 587.486437,167.833895 C605.670484,158.743105 622.130928,155.164509 634.964299,155.164509 C649.121932,155.164509 658.865359,159.519842 661.640945,165.636439 C669.199548,182.295053 645.277861,213.257333 605.558272,217.723982 C603.689455,217.934246 601.928724,218.028246 600.275254,218.028246 C588.548321,218.028246 582.212494,213.271351 580.475691,211.350123 C578.975686,209.691105 578.392351,209.171632 577.894,209.171632 C577.69928,209.171632 577.516936,209.250789 577.298288,209.372 C576.030133,210.077825 576.834591,212.114491 577.298288,213.328246 C578.485586,216.424474 583.351112,221.916053 591.648166,224.647 C594.698505,225.651316 599.577232,226.465982 605.790946,226.465982 C614.446912,226.465982 625.69282,224.885298 638.200282,220.03193 C662.26636,210.692947 681.057669,184.714316 675.537851,162.999491 C671.763087,148.148316 654.020461,140.000825 632.299275,140" id="Fill-2-copy" sketch:type="MSShapeGroup"></path>
        </g>
    </g>
</svg>